<?xml version="1.0" encoding="UTF-8"?>
<svg xmlns="http://www.w3.org/2000/svg" version="1.1" xmlns:xlink="http://www.w3.org/1999/xlink" viewBox="0 0 70.87 70.87">
  <defs>
    <style>
      .cls-1 {
        fill: url(#linear-gradient-2);
      }

      .cls-2 {
        fill: url(#linear-gradient-4);
      }

      .cls-3 {
        fill: url(#linear-gradient-3);
      }

      .cls-4 {
        fill: url(#linear-gradient-5);
      }

      .cls-5 {
        fill: url(#linear-gradient-6);
        opacity: .33;
      }

      .cls-6 {
        fill: url(#linear-gradient);
      }
    </style>
    <linearGradient id="linear-gradient" x1="26.62" y1="47.83" x2="49.28" y2="47.83" gradientUnits="userSpaceOnUse">
      <stop offset=".32" stop-color="#27405f" stop-opacity=".8"/>
      <stop offset=".67" stop-color="#10784f" stop-opacity=".68"/>
      <stop offset=".78" stop-color="#088e49" stop-opacity=".64"/>
      <stop offset=".85" stop-color="#029447" stop-opacity=".6"/>
      <stop offset="1" stop-color="#5aba47" stop-opacity=".7"/>
    </linearGradient>
    <linearGradient id="linear-gradient-2" x1="49.69" y1="1.6" x2="62.56" y2="7.25" gradientTransform="translate(-26.26 24.99) rotate(-5.97)" gradientUnits="userSpaceOnUse">
      <stop offset=".11" stop-color="#129447"/>
      <stop offset=".21" stop-color="#158f45" stop-opacity=".92"/>
      <stop offset=".39" stop-color="#1d8541" stop-opacity=".74"/>
      <stop offset=".61" stop-color="#1e8240" stop-opacity=".47"/>
      <stop offset=".81" stop-color="#60b445" stop-opacity=".49"/>
      <stop offset=".95" stop-color="#65bc46" stop-opacity=".5"/>
    </linearGradient>
    <linearGradient id="linear-gradient-3" x1="-17.16" y1="142.59" x2="-.38" y2="142.59" gradientTransform="translate(98.18 -101.91) rotate(20.13)" gradientUnits="userSpaceOnUse">
      <stop offset="0" stop-color="#b4daaa"/>
      <stop offset="0" stop-color="#82c341" stop-opacity=".98"/>
      <stop offset=".96" stop-color="#c8da2b" stop-opacity=".32"/>
    </linearGradient>
    <linearGradient id="linear-gradient-4" x1="314.48" y1="350.84" x2="308.35" y2="335.38" gradientTransform="translate(-411.47 227.98) rotate(-71.11)" gradientUnits="userSpaceOnUse">
      <stop offset=".12" stop-color="#3b57a7"/>
      <stop offset=".22" stop-color="#3065a2" stop-opacity=".95"/>
      <stop offset=".51" stop-color="#168a95" stop-opacity=".81"/>
      <stop offset=".75" stop-color="#05a18d" stop-opacity=".73"/>
      <stop offset=".92" stop-color="#00aa8b" stop-opacity=".7"/>
    </linearGradient>
    <linearGradient id="linear-gradient-5" x1="324.47" y1="709.02" x2="339.9" y2="709.82" gradientTransform="translate(-364.88 742.18) rotate(-125.15)" gradientUnits="userSpaceOnUse">
      <stop offset=".26" stop-color="#6d3293"/>
      <stop offset=".43" stop-color="#653996" stop-opacity=".98"/>
      <stop offset=".66" stop-color="#56499e" stop-opacity=".95"/>
      <stop offset=".78" stop-color="#4e4ea1" stop-opacity=".92"/>
      <stop offset=".88" stop-color="#4752a3" stop-opacity=".9"/>
    </linearGradient>
    <linearGradient id="linear-gradient-6" x1="28.27" y1="48.72" x2="40.91" y2="57.17" gradientUnits="userSpaceOnUse">
      <stop offset=".11" stop-color="#fff"/>
      <stop offset=".37" stop-color="#f2f3f3"/>
      <stop offset=".6" stop-color="#434345"/>
      <stop offset=".68" stop-color="#333132"/>
      <stop offset=".96" stop-color="#231f20"/>
    </linearGradient>
  </defs>
  <!-- Generator: Adobe Illustrator 28.6.0, SVG Export Plug-In . SVG Version: 1.2.0 Build 709)  -->
  <g>
    <g id="Layer_1">
      <g>
        <ellipse class="cls-6" cx="37.95" cy="47.83" rx="11.33" ry="9.98"/>
        <path class="cls-1" d="M38.6,1.25c-.61.02-.17,2.65-2.14,5.7-.82,1.27-1.21,1.3-3.54,3.64-1.15,1.15-3.49,3.52-5.49,6.34,0,0-1.87,2.64-3.22,5.67-4.21,9.48-.04,24.73,1.47,24.62.9-.07-.91-5.52,2.67-12.73,1.43-2.88,4.24-7.09,7.15-10.67,1.38-1.69,2.9-3.39,3.89-6.17.78-2.19.99-4.39,1.07-5.34.09-1.05.16-2.54,0-4.34-.26-3.01-1.15-6.75-1.88-6.72Z"/>
        <path class="cls-3" d="M52.57,16.92c-.25-.07-.57,1.1-1.66,2.4-.56.66-1.48,1.56-5.05,3.31-3.23,1.58-5.03,2.04-6.35,2.68-2.46,1.18-3.47,1.79-4.37,2.59-.9.8-1.5,1.56-2.09,2.31-1.04,1.33-1.73,2.5-2.31,3.57-.31.58-3.45,6.38-2.64,6.8.43.23,1.28-1.43,4.07-2.65,1.03-.45,2.92-1.1,3.32-1.23,1.95-.67,2.07-.67,3.6-1.17,1.47-.48,2.52-.99,3.22-1.33.64-.31,2.02-.99,3.41-2,1.05-.76,3.73-2.76,5.15-6.1.25-.59.52-1.75,1.01-4.08.54-2.57,1.06-5.01.7-5.11Z"/>
        <path class="cls-2" d="M1.42,33.57c-.07.21,1.22.4,2.76,1.41,2.13,1.4,3.15,3.31,3.58,4.12.38.71.7,1.5,1.24,2.82.41,1.01.44,1.17.66,1.68.17.41.96,2.26,2.65,4.34,1.16,1.43,2.29,2.39,2.84,2.83.49.4,1.82,1.47,3.6,2.33,4.56,2.24,10.03,2.17,10.03,2.17,0,0-1.73-1.88-3.05-4.18-.59-1.02-1.15-2.22-1.47-2.9-.8-1.7-.8-1.81-1.4-3.14-.58-1.29-1.18-2.2-1.58-2.81-.39-.59-1.17-1.76-2.34-2.96-.83-.85-2.69-2.72-5.74-3.94-1.29-.52-2.84-.77-5.94-1.27-3.4-.55-5.75-.71-5.81-.51Z"/>
        <path class="cls-4" d="M7.01,66.7c.13.14,1.03-.64,2.92-1.14,1.13-.3,2.06-.36,2.66-.39,1.54-.09,2.69.08,3.63.21,3.19.45,4.79.67,6,.78,2.22.2,4,.36,6.29.02,1.76-.26,3.05-.71,4.08-1.06.55-.19,1.06-.38,1.53-.58,1.5-.63,2.58-1.23,3.56-1.79,3.08-1.76,4.58-2.69,4.51-2.96-.2-.74-3.43-.05-8.07-1.45-.73-.22-.89-.31-1.82-.57-2.19-.62-3.66-1.03-5.66-1.06-2.35-.04-4.14.47-5.49.87-2.04.6-3.38,1.3-5.74,2.55-1.61.85-2.95,1.56-4.53,2.73-2.34,1.73-4.08,3.62-3.88,3.85Z"/>
        <path class="cls-5" d="M29.71,51.28c-1.88-3.08-.7-6.3-.97-6.32-.27-.02-1.82,3.5-.16,6.82,1.35,2.7,4.17,3.97,5.11,4.34,1.64.65,3.09.74,3.54.76,1.5.07,2.63-.19,3.61-.41,1.31-.29,2.89-.83,2.84-1-.07-.25-3.13.97-6.64.38-2.84-.48-5.83-2.13-7.32-4.57Z"/>
      </g>
    </g>
  </g>
</svg>